<svg width="53" height="53" viewBox="0 0 53 53" fill="none" xmlns="http://www.w3.org/2000/svg">
<g clip-path="url(#clip0_176_47)">
<path d="M35 5H53V53H47.5L42.5 48L35 40.5V5Z" fill="#86C1BE"/>
<path d="M33.125 3.3125H53V53H0V0.95752L33.125 34.0825V3.3125ZM3.3125 49.6875H44.02L3.3125 8.97998V49.6875ZM45.4175 46.375L48.73 49.6875H49.6875V6.625H36.4375V9.9375H43.0625V13.25H36.4375V16.5625H43.0625V19.875H36.4375V23.1875H46.375V26.5H36.4375V29.8125H43.0625V33.125H36.4375V36.4375H43.0625V39.75H38.7925L42.105 43.0625H46.375V46.375H45.4175ZM9.9375 27.4575L25.5425 43.0625H9.9375V27.4575ZM13.25 35.48V39.75H17.52L13.25 35.48Z" fill="#0C170D"/>
</g>
<defs>
<clipPath id="clip0_176_47">
<rect width="53" height="53" fill="white"/>
</clipPath>
</defs>
</svg>
