<svg width="58" height="38" viewBox="0 0 58 38" fill="none" xmlns="http://www.w3.org/2000/svg">
<g clip-path="url(#clip0_176_57)">
<path d="M1 2H34.5L50 11.5V26H21.5V13.5H1V2Z" fill="#86C1BE"/>
</g>
<path d="M0 22.5C0.00313953 25.122 0.83039 27.6767 2.36479 29.8029C3.89918 31.9291 6.06309 33.5192 8.55056 34.3483C11.038 35.1775 13.7232 35.2038 16.2264 34.4234C18.7297 33.6431 20.9243 32.0957 22.5 30H35.425C35.9422 31.4629 36.9004 32.7294 38.1675 33.6249C39.4347 34.5204 40.9484 35.0008 42.5 35C45.775 35 48.55 32.925 49.575 30H55V25C55 11.25 43.75 0 30 0H0V22.5ZM50 25H24.75C25.2548 22.5159 24.9928 19.937 23.9986 17.6052C23.0044 15.2734 21.3251 13.2988 19.1831 11.9432C17.0412 10.5875 14.5378 9.91481 12.0049 10.0143C9.47196 10.1137 7.02905 10.9806 5 12.5V5H28.75C35.25 5 41.05 7.9 45 12.5H35V17.5H48.125C49.175 19.8 49.8 22.35 50 25ZM12.5 15C16.65 15 20 18.35 20 22.5C20 26.65 16.65 30 12.5 30C8.35 30 5 26.65 5 22.5C5 18.35 8.35 15 12.5 15Z" fill="#0C170D"/>
<defs>
<clipPath id="clip0_176_57">
<rect width="53" height="38" fill="white" transform="translate(5)"/>
</clipPath>
</defs>
</svg>
