<svg width="71" height="55" viewBox="0 0 71 55" fill="none" xmlns="http://www.w3.org/2000/svg">
<rect x="3" y="4" width="64" height="48" fill="#86C1BE"/>
<path d="M68.9118 0.705933H2.08824C1.5344 0.705933 1.00325 0.925942 0.61163 1.31756C0.22001 1.70918 0 2.24033 0 2.79417V52.9118C0 53.4656 0.22001 53.9968 0.61163 54.3884C1.00325 54.78 1.5344 55.0001 2.08824 55.0001H68.9118C69.4656 55.0001 69.9968 54.78 70.3884 54.3884C70.78 53.9968 71 53.4656 71 52.9118V2.79417C71 2.24033 70.78 1.70918 70.3884 1.31756C69.9968 0.925942 69.4656 0.705933 68.9118 0.705933ZM20.8824 34.1177V21.5883H50.1177V34.1177H20.8824ZM4.17647 34.1177V21.5883H16.7059V34.1177H4.17647ZM54.2941 21.5883H66.8235V34.1177H54.2941V21.5883ZM66.8235 17.4118H37.5882V4.8824H66.8235V17.4118ZM33.4118 4.8824V17.4118H4.17647V4.8824H33.4118ZM4.17647 38.2942H33.4118V50.8236H4.17647V38.2942ZM37.5882 50.8236V38.2942H66.8235V50.8236H37.5882Z" fill="#0C170D"/>
</svg>
