<svg width="61" height="66" viewBox="0 0 61 66" fill="none" xmlns="http://www.w3.org/2000/svg">
<g clip-path="url(#clip0_202_128)">
<ellipse cx="29.5" cy="27" rx="19.5" ry="18" fill="#86C1BE"/>
<circle cx="20" cy="35" r="18" fill="#86C1BE"/>
<ellipse cx="37.5" cy="34" rx="19.5" ry="18" fill="#86C1BE"/>
</g>
<path d="M49.1324 17.584C47.571 13.8559 44.9426 10.6724 41.5775 8.43345C38.2124 6.19451 34.2606 5 30.2188 5C26.1769 5 22.2251 6.19451 18.86 8.43345C15.4949 10.6724 12.8665 13.8559 11.3051 17.584C7.93303 19.1253 5.07481 21.6029 3.0706 24.7221C1.06639 27.8413 0.00059561 31.4707 6.28703e-05 35.1783C-0.0269181 45.485 8.63398 54.3888 18.9245 54.6586C22.0897 54.7349 25.2257 54.0375 28.0603 52.6269V63.2925C28.0603 63.865 28.2877 64.414 28.6925 64.8188C29.0973 65.2236 29.6463 65.451 30.2188 65.451C30.7912 65.451 31.3402 65.2236 31.745 64.8188C32.1498 64.414 32.3772 63.865 32.3772 63.2925V52.6269C35.0607 53.959 38.0152 54.6543 41.0111 54.6586H41.5022C51.8035 54.3888 60.4671 45.485 60.4375 35.1783C60.4369 31.4707 59.3711 27.8413 57.3669 24.7221C55.3627 21.6029 52.5045 19.1253 49.1324 17.584ZM41.4024 50.3416C38.1835 50.4255 35.0219 49.4803 32.3772 47.6435V36.5813L44.1355 30.7049C44.3892 30.578 44.6155 30.4024 44.8013 30.1882C44.9871 29.9739 45.129 29.7251 45.2187 29.456C45.3083 29.187 45.3442 28.9028 45.3241 28.6199C45.3039 28.337 45.2283 28.0608 45.1015 27.8071C44.9746 27.5534 44.799 27.3272 44.5848 27.1414C44.3705 26.9555 44.1217 26.8137 43.8526 26.724C43.5836 26.6343 43.2994 26.5985 43.0165 26.6186C42.7336 26.6387 42.4574 26.7143 42.2037 26.8412L32.3772 31.7409V24.4399C32.3772 23.8674 32.1498 23.3184 31.745 22.9136C31.3402 22.5088 30.7912 22.2814 30.2188 22.2814C29.6463 22.2814 29.0973 22.5088 28.6925 22.9136C28.2877 23.3184 28.0603 23.8674 28.0603 24.4399V38.2164L18.2338 33.3004C17.7215 33.0443 17.1283 33.0021 16.5849 33.1832C16.0414 33.3644 15.5922 33.754 15.336 34.2664C15.0799 34.7787 15.0377 35.3718 15.2189 35.9153C15.4 36.4587 15.7896 36.9079 16.302 37.1641L28.0603 43.0406V47.6273C25.4163 49.4655 22.2542 50.4108 19.0351 50.3254C11.0353 50.1339 4.29543 43.1971 4.31702 35.1891C4.31497 32.1774 5.2167 29.2344 6.90555 26.7409C8.59439 24.2473 10.9926 22.3178 13.79 21.2022C14.0707 21.0895 14.3245 20.9191 14.535 20.702C14.7456 20.485 14.9082 20.2261 15.0123 19.9422C16.1508 16.8242 18.2203 14.1316 20.9403 12.2292C23.6603 10.3267 26.8994 9.30635 30.2188 9.30635C33.5381 9.30635 36.7772 10.3267 39.4972 12.2292C42.2172 14.1316 44.2867 16.8242 45.4252 19.9422C45.5293 20.2261 45.6919 20.485 45.9025 20.702C46.113 20.9191 46.3669 21.0895 46.6475 21.2022C49.4444 22.3185 51.8423 24.248 53.531 26.7415C55.2198 29.2349 56.1218 32.1776 56.1205 35.1891C56.1421 43.1971 49.4022 50.1339 41.4024 50.3416Z" fill="#0C170D"/>
<defs>
<clipPath id="clip0_202_128">
<rect width="57" height="57" fill="white" transform="translate(4)"/>
</clipPath>
</defs>
</svg>
